<svg xmlns="http://www.w3.org/2000/svg" xmlns:xlink="http://www.w3.org/1999/xlink" width="56" height="56" viewBox="0 0 56 56">
    <defs>
        <path id="a" d="M.004 0h55.093v56H.004z"/>
    </defs>
    <g fill="none" fill-rule="evenodd">
        <g transform="translate(.745)">
            <mask id="b" fill="#fff">
                <use xlink:href="#a"/>
            </mask>
            <path fill="#060403" fill-rule="nonzero" d="M27.548 56c15.215 0 27.549-12.536 27.549-28S42.763 0 27.548 0C12.334 0 0 12.536 0 28s12.334 28 27.548 28" mask="url(#b)"/>
        </g>
        <path fill="#FFFFFE" fill-rule="nonzero" d="M17.06 17.443c-1.048 0-1.895.325-2.541.975v-.723h-2.033v12.432h2.033v-4.761c.646.65 1.493.976 2.54.976 1.016 0 1.899-.42 2.648-1.262.75-.841 1.124-1.9 1.124-3.18 0-1.278-.377-2.34-1.132-3.187-.754-.847-1.634-1.27-2.64-1.27zm-.355 6.964c-.575 0-1.083-.232-1.524-.698-.442-.465-.662-1.068-.662-1.808s.22-1.346.662-1.817c.441-.471.95-.707 1.524-.707.626 0 1.142.23 1.547.69.406.46.608 1.071.608 1.834 0 .762-.202 1.37-.608 1.825-.405.454-.92.681-1.547.681zm10.115-6.964c-.996 0-1.801.336-2.417 1.009v-.757H22.37v8.394h2.032v-3.717c0-1.93.636-2.894 1.909-2.894.472 0 .85.18 1.132.538.282.36.423.836.423 1.43v4.643h2.032v-5.114c0-1.043-.282-1.892-.847-2.548-.564-.656-1.308-.984-2.232-.984zm12.763.252h-2.032v.723c-.647-.65-1.493-.975-2.54-.975-1.006 0-1.886.423-2.64 1.27-.755.847-1.132 1.91-1.132 3.188 0 1.278.374 2.338 1.124 3.18.749.84 1.632 1.26 2.648 1.26 1.047 0 1.893-.324 2.54-.975v.589c0 .706-.213 1.245-.639 1.615-.426.37-.978.555-1.655.555-.482 0-.872-.093-1.17-.278-.298-.185-.606-.496-.924-.933l-1.647 1.53c.708 1.234 1.955 1.851 3.741 1.851 1.273 0 2.312-.353 3.118-1.06.805-.706 1.208-1.688 1.208-2.944v-8.596zm-4.218 6.712c-.626 0-1.142-.227-1.548-.681-.405-.454-.608-1.063-.608-1.825 0-.763.203-1.374.608-1.834.406-.46.922-.69 1.548-.69.575 0 1.083.236 1.524.707.441.47.662 1.076.662 1.817 0 .74-.22 1.343-.662 1.808-.441.466-.95.698-1.524.698zM31.49 33.05c-1.23 0-2.195.426-2.895 1.28-.594-.854-1.463-1.28-2.608-1.28-.986 0-1.776.29-2.37.874v-.64H21.52v7.793h2.099V37.33c0-.802.159-1.4.477-1.796.318-.396.763-.594 1.336-.594.445 0 .816.154 1.113.46.297.308.445.717.445 1.227v4.451h2.1V37.33c0-.792.163-1.388.492-1.789.329-.4.78-.6 1.352-.6.445 0 .816.153 1.113.46.297.307.445.716.445 1.226v4.451h2.083v-4.873c0-.927-.302-1.684-.906-2.272a3.012 3.012 0 0 0-2.179-.883zm12.61 3.982c-.043-1.166-.454-2.122-1.233-2.866a3.9 3.9 0 0 0-2.79-1.117c-1.156 0-2.13.388-2.919 1.164-.79.775-1.185 1.767-1.185 2.975 0 1.208.393 2.197 1.177 2.968.785.77 1.75 1.155 2.894 1.155.89 0 1.67-.203 2.338-.609.668-.406 1.171-1.004 1.51-1.796l-1.876-.39c-.413.687-1.07 1.03-1.972 1.03-.487 0-.914-.163-1.28-.491-.365-.328-.601-.768-.707-1.32h6.042v-.703zm-4.024-2.187c.445 0 .838.12 1.177.36.34.24.572.598.7 1.077H38.12c.117-.458.363-.812.74-1.062.376-.25.781-.375 1.216-.375z"/>
        <path fill="#D92265" fill-rule="nonzero" d="M14.293 41.311c.998 0 1.806-.822 1.806-1.836 0-1.014-.808-1.836-1.806-1.836s-1.807.822-1.807 1.836c0 1.014.81 1.836 1.807 1.836"/>
    </g>
</svg>
